<svg xmlns="http://www.w3.org/2000/svg" xmlns:xlink="http://www.w3.org/1999/xlink" viewBox="0 0 504 71">
  <defs>
    <style>
      .a {
        fill: none;
      }

      .b {
        fill: #514689;
      }

      .c {
        clip-path: url(#a);
      }
    </style>
    <clipPath id="a">
      <rect class="a" y="0.077" width="504" height="70.863"/>
    </clipPath>
  </defs>
  <title>feinberg logo</title>
  <polyline class="b" points="57.206 65.677 57.206 45.659 68.518 45.659 68.518 47.322 59.008 47.322 59.008 54.393 68.185 54.393 68.185 56.056 59.008 56.056 59.008 65.677 57.206 65.677"/>
  <path class="b" d="M71.793,59.106c.055,2.966,1.414,5.461,4.824,5.461a4.14654,4.14654,0,0,0,4.02-3.327h1.747c-.86,3.327-2.939,4.853-6.294,4.853-4.158,0-6.099-3.577-6.099-7.375,0-3.771,2.079-7.375,6.21-7.375,4.658,0,6.349,3.41,6.349,7.763H71.793m8.955-1.525c-.194-2.689-1.636-4.713-4.519-4.713-2.717,0-4.159,2.274-4.381,4.713Z"/>
  <path class="b" d="M85.854,45.659h1.941v2.079H85.854Zm.138,6.1h1.664V65.677H85.992Z"/>
  <path class="b" d="M93.507,65.677H91.843V54.892c0-1.081-.083-2.191-.138-3.133h1.719l.083,2.052.056.055a4.78457,4.78457,0,0,1,4.352-2.523c4.547,0,4.908,4.02,4.908,5.628v8.706h-1.664V56.693c0-2.412-1.386-3.825-3.659-3.825-2.745,0-3.993,2.301-3.993,4.796v8.013"/>
  <path class="b" d="M108.288,65.677h-1.719c.056-.943.139-2.052.139-3.133V45.659h1.664v8.152l.055.055a5.56413,5.56413,0,0,1,4.769-2.523c4.131,0,5.711,3.715,5.711,7.319,0,3.493-1.58,7.431-5.628,7.431a5.69111,5.69111,0,0,1-4.852-2.578l-.055.11-.084,2.052m.084-7.237c0,3.162,1.108,6.127,4.74,6.127,3.189,0,3.993-3.464,3.993-6.043,0-2.662-1.082-5.656-4.242-5.656C109.619,52.868,108.372,55.612,108.372,58.44Z"/>
  <path class="b" d="M123.098,59.106c.055,2.966,1.414,5.461,4.824,5.461a4.14654,4.14654,0,0,0,4.02-3.327h1.746c-.859,3.327-2.938,4.853-6.293,4.853-4.159,0-6.1-3.577-6.1-7.375,0-3.771,2.08-7.375,6.211-7.375,4.658,0,6.349,3.41,6.349,7.763H123.098m8.955-1.525c-.194-2.689-1.636-4.713-4.519-4.713-2.718,0-4.159,2.274-4.381,4.713Z"/>
  <g class="c">
    <path class="b" d="M138.932,65.677h-1.663V54.892c.027-1.081-.083-2.191-.139-3.133h1.719l.083,2.052h.056a3.58159,3.58159,0,0,1,3.133-2.468c.554-.028,1.108,0,1.663.027v1.609c-.332-.028-.693-.111-1.026-.111-2.467,0-3.77,1.775-3.826,4.436v8.373"/>
    <path class="b" d="M155.902,51.759h1.72c-.056.942-.139,2.052-.139,3.133v8.345c0,2.773.139,5.684-2.939,7.125a6.34548,6.34548,0,0,1-3.161.638c-2.523,0-5.517-.859-5.517-3.743h1.802c.194,1.664,2.163,2.219,3.937,2.219a4.05028,4.05028,0,0,0,4.214-3.855V63.016h-.055a5.0949,5.0949,0,0,1-4.519,2.605c-4.187,0-5.989-3.188-5.989-7.014,0-3.771,1.691-7.264,5.933-7.264a5.31763,5.31763,0,0,1,4.575,2.578l.055-.11.083-2.052m-4.547,1.109c-3.022,0-4.297,3.05-4.297,5.6,0,2.551,1.303,5.629,4.353,5.629,3.188,0,4.408-2.967,4.408-5.684C155.819,55.751,154.35,52.868,151.355,52.868Z"/>
  </g>
  <path class="b" d="M174.151,66.093a5.795,5.795,0,0,1-5.961-5.628h1.941c.056,3.077,2.329,3.964,5.018,3.964,2.247,0,4.825-1.303,4.825-3.854,0-1.996-1.442-2.938-3.133-3.493-3.244-1.081-8.179-2.107-8.179-6.433,0-3.493,3.216-5.406,6.377-5.406,2.633,0,6.071.915,6.515,4.769h-1.941c-.055-2.467-2.301-3.105-4.352-3.105-2.08,0-4.658,1.053-4.658,3.493,0,5.684,11.312,3.106,11.312,10.009,0,4.353-3.743,5.684-7.764,5.684"/>
  <path class="b" d="M194.256,56.028c-.138-2.134-1.497-3.16-3.798-3.16-2.551,0-4.131,2.661-4.131,5.822,0,3.188,1.58,5.877,4.131,5.877a3.5168,3.5168,0,0,0,3.798-3.243h1.803c-.444,3.189-2.274,4.769-5.434,4.769-4.159,0-6.1-3.577-6.1-7.375,0-3.771,2.079-7.375,6.21-7.375,2.856,0,5.185,1.719,5.324,4.685h-1.803"/>
  <path class="b" d="M199.333,53.866h.056a4.785,4.785,0,0,1,4.353-2.523c4.547,0,4.907,4.02,4.907,5.628v8.706h-1.664V56.693c0-2.412-1.386-3.825-3.659-3.825-2.745,0-3.993,2.301-3.993,4.796v8.013h-1.664V45.659h1.664v8.207"/>
  <path class="b" d="M224.789,58.718c0,3.66-2.052,7.375-6.488,7.375s-6.488-3.715-6.488-7.375,2.052-7.375,6.488-7.375,6.488,3.715,6.488,7.375m-6.488-5.85c-3.354,0-4.685,3.272-4.685,5.85s1.331,5.849,4.685,5.849c3.355,0,4.686-3.271,4.686-5.849S221.656,52.868,218.301,52.868Z"/>
  <path class="b" d="M239.931,58.718c0,3.66-2.052,7.375-6.488,7.375s-6.487-3.715-6.487-7.375,2.051-7.375,6.487-7.375,6.488,3.715,6.488,7.375m-6.488-5.85c-3.354,0-4.685,3.272-4.685,5.85s1.331,5.849,4.685,5.849c3.355,0,4.686-3.271,4.686-5.849S236.798,52.868,233.443,52.868Z"/>
  <rect class="b" x="243.123" y="45.659" width="1.664" height="20.018"/>
  <path class="b" d="M268.384,58.718c0,3.66-2.052,7.375-6.488,7.375s-6.488-3.715-6.488-7.375,2.052-7.375,6.488-7.375,6.488,3.715,6.488,7.375m-6.488-5.85c-3.355,0-4.685,3.272-4.685,5.85s1.33,5.849,4.685,5.849,4.686-3.271,4.686-5.849S265.251,52.868,261.896,52.868Z"/>
  <path class="b" d="M272.74,65.677V53.283h-2.8V51.759h2.8V48.792c0-2.384.971-3.466,3.355-3.466a7.58369,7.58369,0,0,1,1.581.306v1.33a6.51275,6.51275,0,0,0-1.027-.11c-2.273,0-2.329,1.136-2.246,3.132v1.775h3.161v1.524h-3.161V65.677H272.74"/>
  <polyline class="b" points="288.409 65.677 288.409 45.659 291.293 45.659 298.806 63.099 306.486 45.659 309.23 45.659 309.23 65.677 307.429 65.677 307.429 47.184 307.373 47.184 299.721 65.677 297.919 65.677 290.267 47.268 290.211 47.268 290.211 65.677 288.409 65.677"/>
  <path class="b" d="M314.81,59.106c.055,2.966,1.414,5.461,4.824,5.461a4.14568,4.14568,0,0,0,4.02-3.327H325.4c-.859,3.327-2.938,4.853-6.294,4.853-4.158,0-6.098-3.577-6.098-7.375,0-3.771,2.079-7.375,6.21-7.375,4.658,0,6.348,3.41,6.348,7.763H314.81m8.955-1.525c-.195-2.689-1.636-4.713-4.52-4.713-2.717,0-4.158,2.274-4.38,4.713Z"/>
  <path class="b" d="M338.573,63.625l-.054-.11a5.6561,5.6561,0,0,1-4.77,2.578c-4.131,0-5.711-3.938-5.711-7.431,0-3.604,1.58-7.319,5.711-7.319a5.56711,5.56711,0,0,1,4.77,2.523l.054-.055V45.659h1.664V62.544c0,1.081.083,2.19.139,3.133h-1.719l-.084-2.052m-4.547-10.757c-3.16,0-4.186,2.939-4.186,5.6,0,2.579.749,6.099,3.937,6.099,3.632,0,4.742-3.021,4.742-6.182C338.519,55.557,337.271,52.868,334.026,52.868Z"/>
  <path class="b" d="M344.013,45.659h1.94v2.079h-1.94Zm.138,6.1h1.663V65.677h-1.663Z"/>
  <path class="b" d="M358.791,56.028c-.139-2.134-1.497-3.16-3.798-3.16-2.551,0-4.132,2.661-4.132,5.822,0,3.188,1.581,5.877,4.132,5.877a3.518,3.518,0,0,0,3.798-3.243h1.802c-.444,3.189-2.274,4.769-5.434,4.769-4.159,0-6.099-3.577-6.099-7.375,0-3.771,2.079-7.375,6.21-7.375,2.856,0,5.185,1.719,5.323,4.685h-1.802"/>
  <path class="b" d="M363.48,45.659h1.941v2.079H363.48Zm.139,6.1h1.663V65.677h-1.663Z"/>
  <path class="b" d="M371.133,65.677h-1.664V54.892c0-1.081-.083-2.191-.139-3.133h1.72l.083,2.052.054.055a4.78754,4.78754,0,0,1,4.354-2.523c4.547,0,4.907,4.02,4.907,5.628v8.706h-1.664V56.693c0-2.412-1.386-3.825-3.659-3.825-2.745,0-3.992,2.301-3.992,4.796v8.013"/>
  <path class="b" d="M385.582,59.106c.056,2.966,1.414,5.461,4.824,5.461a4.1468,4.1468,0,0,0,4.021-3.327h1.746c-.86,3.327-2.939,4.853-6.294,4.853-4.158,0-6.099-3.577-6.099-7.375,0-3.771,2.079-7.375,6.21-7.375,4.658,0,6.349,3.41,6.349,7.763H385.582m8.955-1.525c-.194-2.689-1.636-4.713-4.519-4.713-2.717,0-4.159,2.274-4.38,4.713Z"/>
  <polyline class="b" points="56.572 0.152 65.932 0.152 77.257 23.929 77.257 0.152 83.273 0.152 83.273 30.364 74.373 30.364 62.673 5.292 62.673 30.364 56.572 30.364 56.572 0.152"/>
  <path class="b" d="M97.354,26.813c2.716,0,4.554-1.629,4.554-7.229,0-2.8-.543-6.686-4.638-6.686-4.512,0-4.555,5.223-4.555,7.146,0,4.721,1.588,6.769,4.639,6.769M97.27,8.761c7.647,0,10.949,5.182,10.949,11.074,0,5.933-3.427,11.282-11.074,11.282-6.017,0-10.78-3.719-10.78-11.115,0-5.098,2.589-11.241,10.905-11.241"/>
  <path class="b" d="M111.392,14.443c0-1.003-.167-4.053-.292-5.265h5.808l.126,4.053c.794-1.797,2.173-4.346,7.187-4.095v5.558c-6.269-.585-6.644,2.633-6.644,5.265V30.364h-6.185V14.443"/>
  <path class="b" d="M141.613,30.073a19.18881,19.18881,0,0,1-4.807.669c-6.225,0-6.225-3.929-6.225-5.684V13.483h-4.053V9.387h4.053V5.251l6.143-2.257V9.387h5.014v4.096h-5.014V23.01c.042,1.923.042,3.134,2.799,3.134a15.54076,15.54076,0,0,0,2.09-.125v4.054"/>
  <path class="b" d="M145.414.194h6.143V12.145a6.81151,6.81151,0,0,1,6.101-3.176,7.60918,7.60918,0,0,1,6.143,2.841,10.07463,10.07463,0,0,1,1.378,5.726V30.364h-6.142V17.744c0-1.211,0-4.596-3.469-4.596-1.754,0-3.97,1.003-3.97,4.304l.043,12.912h-6.227V.194"/>
  <polyline class="b" points="173.368 9.262 177.254 25.183 181.726 9.262 188.537 9.262 192.967 25.183 197.103 9.262 203.247 9.262 196.017 30.364 189.289 30.364 184.944 14.736 180.514 30.364 173.703 30.364 166.808 9.262 173.368 9.262"/>
  <path class="b" d="M217.377,17.495c0-.962-.084-4.724-3.677-4.724-2.717,0-3.845,2.258-3.97,4.724h7.647m-7.856,3.886c0,1.378,0,5.64,4.303,5.64a3.45563,3.45563,0,0,0,3.678-2.924h5.642a7.06672,7.06672,0,0,1-2.007,4.597c-1.546,1.629-4.304,2.465-7.396,2.465-1.796,0-5.224-.334-7.438-2.633-1.922-2.005-2.716-4.847-2.716-8.232,0-3.426.835-7.523,4.388-9.987a10.58137,10.58137,0,0,1,5.933-1.755,9.061,9.061,0,0,1,8.525,5.097,15.673,15.673,0,0,1,1.254,7.732Z"/>
  <path class="b" d="M232.085,24.264c.083,1.337.918,2.883,3.51,2.883,2.214,0,3.259-1.253,3.259-2.507,0-.962-.502-1.714-2.926-2.382l-3.843-1.045c-1.714-.501-5.35-1.546-5.35-5.85,0-4.095,3.762-6.602,9.236-6.602,4.346,0,7.856,2.005,8.022,6.226h-5.641c-.167-2.34-2.047-2.507-3.009-2.507-1.67,0-2.925.794-2.925,2.089,0,1.421,1.045,1.713,2.884,2.215l3.803,1.044c3.845,1.045,5.641,3.009,5.641,5.892,0,3.636-3.134,7.271-9.695,7.271-2.716,0-5.307-.585-7.229-2.59a6.02567,6.02567,0,0,1-1.545-4.137h5.808"/>
  <path class="b" d="M261.083,30.073a19.17551,19.17551,0,0,1-4.805.669c-6.226,0-6.226-3.929-6.226-5.684V13.483h-4.053V9.387h4.053V5.251l6.144-2.257V9.387h5.013v4.096h-5.013V23.01c.041,1.923.041,3.134,2.799,3.134a15.49891,15.49891,0,0,0,2.088-.125v4.054"/>
  <path class="b" d="M276.929,17.495c0-.962-.084-4.724-3.678-4.724-2.716,0-3.845,2.258-3.97,4.724h7.648m-7.856,3.886c0,1.378,0,5.64,4.303,5.64a3.45563,3.45563,0,0,0,3.678-2.924h5.642a7.06672,7.06672,0,0,1-2.007,4.597c-1.545,1.629-4.303,2.465-7.396,2.465-1.797,0-5.224-.334-7.438-2.633-1.922-2.005-2.717-4.847-2.717-8.232,0-3.426.836-7.523,4.389-9.987a10.57894,10.57894,0,0,1,5.933-1.755,9.06192,9.06192,0,0,1,8.525,5.097,15.67055,15.67055,0,0,1,1.253,7.732Z"/>
  <path class="b" d="M286.914,14.443c0-1.003-.167-4.053-.292-5.265h5.809l.125,4.053c.793-1.797,2.172-4.346,7.187-4.095v5.558c-6.268-.585-6.644,2.633-6.644,5.265V30.364h-6.185V14.443"/>
  <path class="b" d="M302.747,13.022c0-.084,0-2.381-.125-3.844h5.933l.167,3.175c.585-.961,2.257-3.676,6.853-3.676,4.138,0,5.892,2.507,6.436,3.97.46,1.295.584,2.381.584,6.308V30.364h-6.309V17.243a5.03006,5.03006,0,0,0-.335-2.299,3.22273,3.22273,0,0,0-3.008-1.796,3.84105,3.84105,0,0,0-3.217,1.629,5.772,5.772,0,0,0-.753,3.218V30.364h-6.226V13.022"/>
  <polyline class="b" points="3.281 4.706 17.103 30.364 24.779 30.364 8.816 0.153 0 0.153 0 30.364 3.281 30.364 3.281 4.706"/>
  <polyline class="b" points="35.724 30.364 42.521 30.364 42.521 0.152 35.735 0.152 27.746 14.521 20.147 0.152 12.376 0.152 25.623 25.18 35.735 6.938 35.724 30.364"/>
  <path class="b" d="M500.593,9.55a2.929,2.929,0,1,1,2.92-2.939,2.93472,2.93472,0,0,1-2.92,2.939m-.001-6.344A3.41551,3.41551,0,1,0,504,6.612a3.4136,3.4136,0,0,0-3.408-3.406"/>
  <path class="b" d="M500.717,6.464h-.968v-1.4h1.155c.436,0,.621.292.621.686,0,.585-.371.714-.808.714m1.19,1.057c-.034-.394-.118-.737-.525-.826V6.684a.9687.9687,0,0,0,.608-1.019.98435.98435,0,0,0-1.062-1.051h-1.643V8.629h.464V6.914h1.136c.449,0,.532.331.582.725.068.394-.005.827.127.99h.518a2.321,2.321,0,0,1-.205-1.108"/>
  <polyline class="b" points="336.646 30.248 336.646 0.078 340.992 0.078 352.316 26.362 363.891 0.078 368.029 0.078 368.029 30.248 365.313 30.248 365.313 2.376 365.229 2.376 353.695 30.248 350.979 30.248 339.446 2.501 339.363 2.501 339.363 30.248 336.646 30.248"/>
  <path class="b" d="M388.459,18.046c-.292-4.053-2.465-7.104-6.81-7.104-4.096,0-6.27,3.426-6.603,7.104h13.413m-13.497,2.298c.084,4.471,2.131,8.232,7.271,8.232a6.248,6.248,0,0,0,6.059-5.015h2.633c-1.296,5.015-4.43,7.313-9.486,7.313-6.268,0-9.193-5.39-9.193-11.116,0-5.683,3.133-11.114,9.36-11.114,7.021,0,9.57,5.139,9.57,11.7Z"/>
  <path class="b" d="M403.793,10.942c-4.763,0-6.31,4.43-6.31,8.441,0,3.886,1.129,9.193,5.934,9.193,5.474,0,7.146-4.554,7.146-9.318,0-4.263-1.881-8.316-6.77-8.316m6.854,16.213-.084-.167a8.5214,8.5214,0,0,1-7.188,3.886c-6.226,0-8.608-5.933-8.608-11.198,0-5.433,2.382-11.032,8.608-11.032a8.38593,8.38593,0,0,1,7.188,3.802l.084-.084V.077h2.506V25.525c0,1.63.126,3.302.21,4.723h-2.592Z"/>
  <path class="b" d="M419.045,9.271h2.507V30.248h-2.507ZM418.836.077h2.925V3.211h-2.925Z"/>
  <path class="b" d="M441.19,15.705c-.208-3.217-2.256-4.763-5.724-4.763-3.845,0-6.227,4.011-6.227,8.775,0,4.806,2.382,8.859,6.227,8.859,3.259,0,5.516-2.006,5.724-4.889h2.717c-.67,4.805-3.428,7.187-8.191,7.187-6.268,0-9.193-5.39-9.193-11.116,0-5.683,3.134-11.114,9.36-11.114,4.304,0,7.815,2.59,8.024,7.061H441.19"/>
  <path class="b" d="M448.46,9.271h2.507V30.248H448.46ZM448.25.077h2.926V3.211H448.25Z"/>
  <path class="b" d="M459.783,30.248h-2.507V13.993c0-1.631-.126-3.301-.21-4.722h2.592l.125,3.091.083.084a7.21587,7.21587,0,0,1,6.561-3.802c6.853,0,7.397,6.06,7.397,8.483V30.248h-2.507V16.709c0-3.636-2.09-5.766-5.516-5.766-4.138,0-6.018,3.468-6.018,7.228V30.248"/>
  <path class="b" d="M494.006,18.046c-.293-4.053-2.465-7.104-6.811-7.104-4.096,0-6.269,3.426-6.603,7.104h13.414m-13.497,2.298c.083,4.471,2.13,8.232,7.271,8.232a6.24877,6.24877,0,0,0,6.059-5.015h2.632c-1.295,5.015-4.43,7.313-9.486,7.313-6.268,0-9.193-5.39-9.193-11.116,0-5.683,3.134-11.114,9.361-11.114,7.02,0,9.569,5.139,9.569,11.7Z"/>
</svg>